#!OML:ASF H:\LiuWeirdWalks\Patient Classification 1\Patient 1\Session 1\male.ASF
:FULLY-SPECIFIED
:DEGREES
237
root 0.99019 17.4262 -10.3054 5.89809 8.39273 8.1615
lowerback 7.7577 -2.76381 -10.4279
upperback -1.57863 -4.67314 0.892961
thorax -5.13587 -1.97028 7.33929
lowerneck -15.7288 0.132586 5.4328
upperneck 19.1847 0.0477579 -5.65912
head 8.57007 -0.178004 -2.8146
rclavicle 4.51241e-014 2.14687e-014
rhumerus -57.8623 -24.0177 -49.3091
rradius 14.634
rwrist 14.8219
rhand -16.5017 -3.12344
rfingers 7.12502
rthumb 9.71613 -32.8793
lclavicle 4.51241e-014 2.14687e-014
lhumerus -18.2774 -3.65338 82.3748
lradius 41.8417
lwrist 21.5253
lhand -19.0303 -2.21595
lfingers 7.12502
lthumb 7.27594 27.639
rfemur -41.9946 -6.82775 9.67375
rtibia 31.026
rfoot -13.9311 -19.193
rtoes -13.4505
lfemur 21.2553 -4.80802 -29.5785
ltibia 2.54444e-014
lfoot -4.22926 11.973
ltoes -22.9014
238
root 0.979493 17.4209 -10.0257 5.8435 8.47491 7.70857
lowerback 7.62715 -2.76196 -10.1108
upperback -1.58585 -4.61486 1.09272
thorax -5.08631 -1.9519 7.36019
lowerneck -15.8206 0.0942152 5.37819
upperneck 19.1596 0.012185 -5.69967
head 8.57588 -0.204185 -2.82382
rclavicle 6.54995e-014 -3.18055e-014
rhumerus -58.7277 -24.8639 -47.5864
rradius 14.2654
rwrist 16.0612
rhand -16.6473 -3.15029
rfingers 7.12502
rthumb 9.57567 -32.9127
lclavicle 6.54995e-014 -3.18055e-014
lhumerus -17.9507 -3.88862 82.35
lradius 42.6969
lwrist 21.3781
lhand -19.2404 -2.57205
lfingers 7.12502
lthumb 7.07308 27.2898
rfemur -41.5445 -7.05003 10.5393
rtibia 32.0803
rfoot -14.1373 -18.0625
rtoes -13.603
lfemur 22.1403 -4.82731 -28.9523
ltibia 1.90833e-014
lfoot -3.07512 11.5644
ltoes -24.353
239
root 0.967894 17.4188 -9.74096 5.80178 8.44142 7.33393
lowerback 7.47064 -2.7183 -9.87945
upperback -1.60484 -4.50952 1.26348
thorax -5.04033 -1.9071 7.39277
lowerneck -15.9287 0.0433371 5.28078
upperneck 19.1743 -0.0355032 -5.71153
head 8.59753 -0.236256 -2.81851
rclavicle -5.13361e-014 -3.18055e-015
rhumerus -59.5797 -25.6795 -45.9074
rradius 13.9255
rwrist 17.3239
rhand -16.7326 -3.28547
rfingers 7.12502
rthumb 9.49331 -33.0516
lclavicle -5.13361e-014 -3.18055e-015
lhumerus -17.7566 -4.10234 82.3379
lradius 43.517
lwrist 21.1374
lhand -19.4184 -2.9308
lfingers 7.12502
lthumb 6.90129 26.9367
rfemur -41.0097 -7.12244 11.2975
rtibia 33.1896
rfoot -14.4698 -17.0277
rtoes -13.5586
lfemur 22.9945 -4.74911 -28.3936
ltibia -6.67916e-014
lfoot -1.68997 10.9742
ltoes -25.8768
240
root 0.955784 17.4232 -9.45164 5.76217 8.34677 7.05814
lowerback 7.3105 -2.65095 -9.74104
upperback -1.63448 -4.38444 1.39446
thorax -5.00444 -1.849 7.43394
lowerneck -15.9854 -0.0103625 5.18144
upperneck 19.1861 -0.085177 -5.71832
head 8.60881 -0.268279 -2.81083
rclavicle 1.5704e-014 1.59028e-015
rhumerus -60.4015 -26.4187 -44.35
rradius 13.6267
rwrist 18.5364
rhand -16.7729 -3.49498
rfingers 7.12502
rthumb 9.45445 -33.2629
lclavicle 1.5704e-014 1.59028e-015
lhumerus -17.6959 -4.3025 82.3322
lradius 44.2828
lwrist 20.8231
lhand -19.578 -3.33131
lfingers 7.12502
lthumb 6.74723 26.5412
rfemur -40.3791 -7.02622 11.8712
rtibia 34.2172
rfoot -14.8528 -16.22
rtoes -13.4334
lfemur 21.2863 -4.60631 -27.8795
ltibia 4.96911
lfoot -2.32554 11.063
ltoes -27.4048
241
root 0.943484 17.4374 -9.15858 5.72073 8.2308 6.83096
lowerback 7.16528 -2.57478 -9.63737
upperback -1.68079 -4.25483 1.50372
thorax -4.99518 -1.78552 7.47324
lowerneck -16.0285 -0.058119 5.08783
upperneck 19.27 -0.12324 -5.73373
head 8.64279 -0.294988 -2.80708
rclavicle -4.52235e-015 -1.98785e-014
rhumerus -61.1614 -27.0752 -42.9427
rradius 13.3615
rwrist 19.6628
rhand -16.7816 -3.78853
rfingers 7.12502
rthumb 9.44611 -33.5568
lclavicle -4.52235e-015 -1.98785e-014
lhumerus -17.787 -4.49212 82.342
lradius 44.9898
lwrist 20.4924
lhand -19.7447 -3.78764
lfingers 7.12502
lthumb 6.58624 26.0899
rfemur -39.6782 -6.75376 12.2864
rtibia 35.0539
rfoot -15.1007 -15.7671
rtoes -13.3882
lfemur 20.4956 -4.44451 -27.445
ltibia 8.03447
lfoot -1.72483 10.5693
ltoes -28.8502
242
root 0.931409 17.4638 -8.863 5.6684 8.10228 6.57323
lowerback 7.04039 -2.49174 -9.47548
upperback -1.73892 -4.11407 1.60486
thorax -5.01647 -1.7161 7.4721
lowerneck -16.0326 -0.095701 5.03418
upperneck 19.3494 -0.15117 -5.76993
head 8.66869 -0.31577 -2.81547
rclavicle -2.75317e-014 1.59028e-015
rhumerus -61.8672 -27.6888 -41.6682
rradius 13.1161
rwrist 20.7605
rhand -16.7966 -4.14388
rfingers 7.12502
rthumb 9.43156 -33.9128
lclavicle -2.75317e-014 1.59028e-015
lhumerus -18.0153 -4.67463 82.3577
lradius 45.6175
lwrist 20.157
lhand -19.8902 -4.28508
lfingers 7.12502
lthumb 6.44585 25.5968
rfemur -38.9356 -6.28445 12.6179
rtibia 35.6454
rfoot -15.0288 -15.6665
rtoes -13.2965
lfemur 19.7973 -4.26489 -26.9822
ltibia 10.7561
lfoot -0.52939 9.78042
ltoes -30.2037
243
root 0.919677 17.5014 -8.56668 5.60152 7.96504 6.21433
lowerback 6.9398 -2.40942 -9.18392
upperback -1.80464 -3.96477 1.71996
thorax -5.0676 -1.64438 7.41363
lowerneck -16.0003 -0.109982 5.04938
upperneck 19.3913 -0.150895 -5.86552
head 8.67667 -0.32417 -2.85125
rclavicle 3.10601e-014 -3.97569e-015
rhumerus -62.4713 -28.2328 -40.596
rradius 12.8937
rwrist 21.7852
rhand -16.8295 -4.4689
rfingers 7.12502
rthumb 9.39982 -34.2393
lclavicle 3.10601e-014 -3.97569e-015
lhumerus -18.3664 -4.8142 82.3767
lradius 46.1561
lwrist 19.8283
lhand -20.0283 -4.71834
lfingers 7.12502
lthumb 6.31245 25.1676
rfemur -38.1713 -5.62411 12.9584
rtibia 35.9942
rfoot -14.547 -15.8666
rtoes -13.2677
lfemur 18.9728 -4.33371 -26.5024
ltibia 13.5211
lfoot 1.22881 9.02071
ltoes -31.3276
244
root 0.90909 17.5474 -8.27087 5.51743 7.8345 5.74216
lowerback 6.86565 -2.32823 -8.73903
upperback -1.86634 -3.80487 1.851
thorax -5.13806 -1.57136 7.28548
lowerneck -15.9851 -0.120191 5.08442
upperneck 19.4191 -0.149739 -5.96777
head 8.68297 -0.331619 -2.89243
rclavicle 4.05024e-014 1.43125e-014
rhumerus -62.9445 -28.7111 -39.7688
rradius 12.6963
rwrist 22.6951
rhand -16.889 -4.7328
rfingers 7.12502
rthumb 9.34242 -34.5058
lclavicle 4.05024e-014 1.43125e-014
lhumerus -18.8058 -4.92524 82.3997
lradius 46.5792
lwrist 19.5317
lhand -20.1455 -5.08609
lfingers 7.12502
lthumb 6.19936 24.8032
rfemur -37.3739 -4.85646 13.3603
rtibia 36.1521
rfoot -13.6932 -16.2353
rtoes -13.1875
lfemur 17.9269 -4.31539 -25.8627
ltibia 16.4659
lfoot 3.37453 8.00189
ltoes -32.0041
245
root 0.899807 17.5964 -7.97668 5.41357 7.70219 5.17647
lowerback 6.80139 -2.25065 -8.16836
upperback -1.90947 -3.63793 1.99873
thorax -5.19965 -1.50023 7.10227
lowerneck -15.9504 -0.130854 5.12077
upperneck 19.3865 -0.148955 -6.07775
head 8.66512 -0.339842 -2.935
rclavicle -4.52235e-014 -1.27222e-014
rhumerus -63.2851 -29.1764 -39.1243
rradius 12.506
rwrist 23.5862
rhand -16.994 -4.88601
rfingers 7.12502
rthumb 9.24117 -34.6635
lclavicle -4.52235e-014 -1.27222e-014
lhumerus -19.3025 -4.97643 82.4235
lradius 46.8659
lwrist 19.2485
lhand -20.212 -5.35155
lfingers 7.12502
lthumb 6.13519 24.5396
rfemur -36.5218 -4.08265 13.8613
rtibia 36.1957
rfoot -12.666 -16.6126
rtoes -12.9917
lfemur 16.644 -4.22397 -25.0969
ltibia 19.6243
lfoot 5.88403 6.78394
ltoes -32.1142
246
root 0.8922 17.6432 -7.68547 5.29711 7.5544 4.57439
lowerback 6.75384 -2.16763 -7.52854
upperback -1.92839 -3.45852 2.14367
thorax -5.24868 -1.42703 6.87487
lowerneck -15.917 -0.133425 5.20509
upperneck 19.3004 -0.142322 -6.22787
head 8.62955 -0.346077 -2.99747
rclavicle 5.19325e-014 -3.49861e-014
rhumerus -63.4695 -29.6154 -38.721
rradius 12.3369
rwrist 24.3997
rhand -17.1403 -4.88992
rfingers 7.12502
rthumb 9.1 -34.6736
lclavicle 5.19325e-014 -3.49861e-014
lhumerus -19.8286 -5.00249 82.4397
lradius 47.0219
lwrist 19.0133
lhand -20.2409 -5.50618
lfingers 7.12502
lthumb 6.10729 24.3858
rfemur -35.6081 -3.41572 14.4564
rtibia 36.1978
rfoot -11.7209 -16.8363
rtoes -12.67
lfemur 15.1411 -4.08127 -24.2868
ltibia 22.9677
lfoot 8.76629 5.46276
ltoes -31.4137
247
root 0.88589 17.6859 -7.39735 5.17024 7.39847 3.99899
lowerback 6.71924 -2.08395 -6.89883
upperback -1.92515 -3.28037 2.27852
thorax -5.2788 -1.35611 6.64171
lowerneck -15.886 -0.144976 5.27115
upperneck 19.2134 -0.146589 -6.36522
head 8.59347 -0.357429 -3.05372
rclavicle -3.35946e-014 2.78299e-014
rhumerus -63.447 -29.9607 -38.65
rradius 12.21
rwrist 25.0059
rhand -17.3074 -4.75919
rfingers 7.12502
rthumb 8.93872 -34.5498
lclavicle -3.35946e-014 2.78299e-014
lhumerus -20.3859 -5.01623 82.4541
lradius 47.0576
lwrist 18.8593
lhand -20.2173 -5.51648
lfingers 7.12502
lthumb 6.13001 24.3748
rfemur -34.6268 -2.9349 15.102
rtibia 36.2046
rfoot -11.0523 -16.8268
rtoes -12.1657
lfemur 13.4547 -3.90716 -23.5037
ltibia 26.4542
lfoot 11.982 4.0836
ltoes -29.674
248
root 0.880737 17.7242 -7.11271 5.03296 7.23289 3.51188
lowerback 6.71273 -1.99199 -6.34181
upperback -1.89968 -3.10104 2.37983
thorax -5.29743 -1.28392 6.41423
lowerneck -15.8615 -0.161041 5.33752
upperneck 19.1163 -0.162029 -6.48409
head 8.55457 -0.372126 -3.10479
rclavicle -4.83544e-014 -1.59028e-015
rhumerus -63.1638 -30.1351 -39.0633
rradius 12.1527
rwrist 25.2156
rhand -17.4966 -4.51525
rfingers 7.12502
rthumb 8.7561 -34.3136
lclavicle -4.83544e-014 -1.59028e-015
lhumerus -20.9338 -5.06761 82.4643
lradius 46.9624
lwrist 18.8308
lhand -20.1499 -5.41196
lfingers 7.12502
lthumb 6.19513 24.4775
rfemur -33.5888 -2.66717 15.724
rtibia 36.2276
rfoot -10.745 -16.5962
rtoes -11.548
lfemur 11.6257 -3.71771 -22.825
ltibia 30.0343
lfoot 15.4323 2.72774
ltoes -26.8361
